<?xml version="1.0" encoding="UTF-8"?>
<svg id="Layer_8" data-name="Layer 8" xmlns="http://www.w3.org/2000/svg" xmlns:xlink="http://www.w3.org/1999/xlink" viewBox="0 0 500 500">
  <defs>
    <style>
      .cls-1 {
        fill: #fff;
      }

      .cls-2 {
        fill: #dff2f1;
      }

      .cls-3 {
        clip-path: url(#clippath);
      }
    </style>
    <clipPath id="clippath">
      <path class="cls-1" d="m198.66,344.96c70.58,4.54,140.65,4.79,210.19.56,10.55-.64,20.88-3.56,30-8.89,51.79-30.25,29.23-110.35-33.9-112.18-19.4-75.23-108.77-106.72-166.47-33.7-24.51-13.28-60.77,6.13-60.77,33.7C39.6,158.32-27.04,354.66,106.23,344.96c9.7,32.18,71.49,41.36,92.43,0Z"/>
    </clipPath>
  </defs>
  <path class="cls-1" d="m198.66,344.96c70.58,4.54,140.65,4.79,210.19.56,10.55-.64,20.88-3.56,30-8.89,51.79-30.25,29.23-110.35-33.9-112.18-19.4-75.23-108.77-106.72-166.47-33.7-24.51-13.28-60.77,6.13-60.77,33.7C39.6,158.32-27.04,354.66,106.23,344.96c9.7,32.18,71.49,41.36,92.43,0Z"/>
  <g class="cls-3">
    <path class="cls-2" d="m137.44,349.82c-12.63,1.64-24.03,2.4-34.28,2.4-163.47.03-31.64-193.5,90.32-96.88,0-21.62,28.42-36.83,47.64-26.42,38.72-100.48,194.35-76.41,206.21,29.22l38.3,74.04s-366.64,63.32-370.72,63.32l-7.15-37.79-1.53-9.19,358.47-140.43,28.09,87.32"/>
  </g>
</svg>