<?xml version="1.0" encoding="UTF-8"?>
<svg xmlns="http://www.w3.org/2000/svg" xmlns:xlink="http://www.w3.org/1999/xlink" viewBox="0 0 500 500">
  <defs>
    <style>
      .cls-1 {
        fill: #fff;
      }

      .cls-2 {
        fill: #dff2f1;
      }

      .cls-3 {
        isolation: isolate;
      }

      .cls-4 {
        mix-blend-mode: multiply;
        opacity: .06;
      }

      .cls-5 {
        clip-path: url(#clippath);
      }

      .cls-6 {
        fill: rgb(0,0,0,0);
      }
    </style>
    <clipPath id="clippath">
      <path class="cls-1" d="m126.16,346.07c66.63,4.25,133.49,3.03,200.56-3.09,35.25-3.22,63.05-32.15,63.71-67.54,1-54.08-51.03-93.56-129.63-63.76-74.82-122.03-214.89-60.33-202.06,69.11,3.5,35.33,32,63.02,67.43,65.28Z"/>
    </clipPath>
  </defs>
  <g class="cls-3">
    <g id="Layer_12" data-name="Layer 12">
      <rect class="cls-6" x="-518.98" y="-87.17" width="1020" height="2753.36"/>
    </g>
    <g id="Layer_3" data-name="Layer 3">
      <path class="cls-4" d="m126.16,361.07c66.63,4.25,133.49,3.03,200.56-3.09,35.25-3.22,63.05-32.15,63.71-67.54,1-54.08-51.03-93.56-129.63-63.76-74.82-122.03-214.89-60.33-202.06,69.11,3.5,35.33,32,63.02,67.43,65.28Z"/>
      <g>
        <path class="cls-1" d="m126.16,346.07c66.63,4.25,133.49,3.03,200.56-3.09,35.25-3.22,63.05-32.15,63.71-67.54,1-54.08-51.03-93.56-129.63-63.76-74.82-122.03-214.89-60.33-202.06,69.11,3.5,35.33,32,63.02,67.43,65.28Z"/>
        <g class="cls-5">
          <path class="cls-2" d="m142.17,356.83c7.82-.23,113.59.28,171.74-3.74,41.93-2.9,81.66-37.9,82.21-67.91.84-45.86-71.24-71.19-137.89-45.91-63.45-103.48-202.72-53.11-216.49,46.43-8.46,42.97,78.49,71.78,100.43,71.15Z"/>
        </g>
      </g>
    </g>
  </g>
</svg>